#N canvas 659 67 564 466 12;
#X obj 123 55 bng 19 250 50 0 empty empty empty 0 -10 0 12 #fcfcfc #000000 #000000;
#X floatatom 145 56 5 0 2000 2 decay - - 0;
#X obj 57 15 inlet;
#X obj 110 13 inlet;
#X obj 188 308 outlet~;
#X obj 187 8 inlet;
#X floatatom 185 57 5 1 8 2 exp - - 0;
#X obj 413 4 loadbang;
#X msg 281 8 set 2;
#X obj 425 463;
#N canvas 521 442 450 353 env 0;
#X obj 56 7 inlet;
#X obj 62 207 outlet~;
#X obj 18 111 vline~;
#X obj 116 111 vline~;
#X obj 115 135 pow~ 2;
#X msg 17 84 1 5 0 \, 0 0 5;
#X msg 115 86 1 0 5 \, 0 \$1 5;
#X msg 120 35 set \$1;
#X floatatom 120 60 5 0 0 0 - - - 0;
#X obj 80 170 +~;
#X obj 118 5 r \$0-dec;
#X obj 219 109 r \$0-exp;
#X obj 56 37 t b b;
#X connect 0 0 12 0;
#X connect 2 0 9 0;
#X connect 3 0 4 0;
#X connect 4 0 9 1;
#X connect 5 0 2 0;
#X connect 6 0 3 0;
#X connect 7 0 8 0;
#X connect 8 0 6 0;
#X connect 9 0 1 0;
#X connect 10 0 7 0;
#X connect 11 0 4 1;
#X connect 12 1 5 0;
#X connect 12 1 8 0;
#X restore 55 228 pd env;
#X obj 82 94 f;
#X obj 103 122 % 4;
#X obj 126 93 + 1;
#X obj 184 94 s \$0-dec;
#X obj 254 94 s \$0-exp;
#N canvas 403 405 450 353 env2 0;
#X obj 56 7 inlet;
#X obj 62 207 outlet~;
#X obj 18 111 vline~;
#X obj 116 111 vline~;
#X obj 115 135 pow~ 2;
#X msg 17 84 1 5 0 \, 0 0 5;
#X msg 115 86 1 0 5 \, 0 \$1 5;
#X msg 120 35 set \$1;
#X floatatom 120 60 5 0 0 0 - - - 0;
#X obj 80 170 +~;
#X obj 118 5 r \$0-dec;
#X obj 219 109 r \$0-exp;
#X obj 56 37 t b b;
#X connect 0 0 12 0;
#X connect 2 0 9 0;
#X connect 3 0 4 0;
#X connect 4 0 9 1;
#X connect 5 0 2 0;
#X connect 6 0 3 0;
#X connect 7 0 8 0;
#X connect 8 0 6 0;
#X connect 9 0 1 0;
#X connect 10 0 7 0;
#X connect 11 0 4 1;
#X connect 12 1 5 0;
#X connect 12 1 8 0;
#X restore 126 230 pd env2;
#N canvas 403 405 450 353 env2 0;
#X obj 56 7 inlet;
#X obj 62 207 outlet~;
#X obj 18 111 vline~;
#X obj 116 111 vline~;
#X obj 115 135 pow~ 2;
#X msg 17 84 1 5 0 \, 0 0 5;
#X msg 115 86 1 0 5 \, 0 \$1 5;
#X msg 120 35 set \$1;
#X floatatom 120 60 5 0 0 0 - - - 0;
#X obj 80 170 +~;
#X obj 118 5 r \$0-dec;
#X obj 219 109 r \$0-exp;
#X obj 56 37 t b b;
#X connect 0 0 12 0;
#X connect 2 0 9 0;
#X connect 3 0 4 0;
#X connect 4 0 9 1;
#X connect 5 0 2 0;
#X connect 6 0 3 0;
#X connect 7 0 8 0;
#X connect 8 0 6 0;
#X connect 9 0 1 0;
#X connect 10 0 7 0;
#X connect 11 0 4 1;
#X connect 12 1 5 0;
#X connect 12 1 8 0;
#X restore 191 231 pd env2;
#N canvas 403 405 450 353 env2 0;
#X obj 56 7 inlet;
#X obj 62 207 outlet~;
#X obj 18 111 vline~;
#X obj 116 111 vline~;
#X obj 115 135 pow~ 2;
#X msg 17 84 1 5 0 \, 0 0 5;
#X msg 115 86 1 0 5 \, 0 \$1 5;
#X msg 120 35 set \$1;
#X floatatom 120 60 5 0 0 0 - - - 0;
#X obj 80 170 +~;
#X obj 118 5 r \$0-dec;
#X obj 219 109 r \$0-exp;
#X obj 56 37 t b b;
#X connect 0 0 12 0;
#X connect 2 0 9 0;
#X connect 3 0 4 0;
#X connect 4 0 9 1;
#X connect 5 0 2 0;
#X connect 6 0 3 0;
#X connect 7 0 8 0;
#X connect 8 0 6 0;
#X connect 9 0 1 0;
#X connect 10 0 7 0;
#X connect 11 0 4 1;
#X connect 12 1 5 0;
#X connect 12 1 8 0;
#X restore 256 232 pd env2;
#X obj 91 184 sel 0 1 2 3;
#X msg 314 44 set 200;
#X connect 0 0 11 0;
#X connect 1 0 14 0;
#X connect 2 0 0 0;
#X connect 5 0 6 0;
#X connect 6 0 15 0;
#X connect 7 0 20 0;
#X connect 7 0 8 0;
#X connect 8 0 6 0;
#X connect 10 0 4 0;
#X connect 11 0 12 0;
#X connect 12 0 13 0;
#X connect 12 0 19 0;
#X connect 13 0 11 1;
#X connect 16 0 4 0;
#X connect 17 0 4 0;
#X connect 18 0 4 0;
#X connect 19 0 10 0;
#X connect 19 1 16 0;
#X connect 19 2 17 0;
#X connect 19 3 18 0;
#X connect 20 0 1 0;
#X coords 0 -1 1 1 110 40 2 115 40;
