#N canvas 125 339 1022 533 12;
#X obj 121 73 f;
#X obj 165 72 + 1;
#X obj 142 101 % 8;
#X obj 69 163 sel 0 1 2 3 4 5 6 7, f 84;
#X obj 277 36 tgl 14 0 \$0-s1 empty empty 0 -10 0 8 #ffe3c6 #000000 #000000 0 1;
#X obj 70 209 spigot;
#X obj 293 36 tgl 14 0 \$0-s2 empty empty 0 -10 0 8 #ffe3c6 #000000 #000000 0 1;
#X obj 144 211 spigot;
#X obj 309 36 tgl 14 0 \$0-s3 empty empty 0 -10 0 8 #ffe3c6 #000000 #000000 0 1;
#X obj 216 212 spigot;
#X obj 325 36 tgl 14 0 \$0-s4 empty empty 0 -10 0 8 #ffe3c6 #000000 #000000 0 1;
#X obj 288 213 spigot;
#X obj 341 36 tgl 14 0 \$0-s5 empty empty 0 -10 0 8 #ffe3c6 #000000 #000000 0 1;
#X obj 363 214 spigot;
#X obj 357 36 tgl 14 0 \$0-s6 empty empty 0 -10 0 8 #ffe3c6 #000000 #000000 0 1;
#X obj 434 214 spigot;
#X obj 373 36 tgl 14 0 \$0-s7 empty empty 0 -10 0 8 #ffe3c6 #000000 #000000 0 1;
#X obj 508 214 spigot;
#X obj 389 36 tgl 14 0 \$0-s8 empty empty 0 -10 0 8 #ffe3c6 #000000 #000000 0 1;
#X obj 578 212 spigot;
#X obj 277 15 tgl 19 0 \$0-start empty empty 0 -10 0 12 #fcfcfc #000000 #000000 0 1;
#X obj 121 40 metro 500;
#X floatatom 299 16 5 0 0 0 - \$0-speed-start \$0-speed 0;
#X obj 64 11 r \$0-start;
#X obj 184 11 r \$0-speed;
#X obj 50 79 bng 19 250 50 0 empty empty empty 0 -10 0 12 #fcfcfc #000000 #000000;
#X obj 78 184 r \$0-s1;
#X obj 151 184 r \$0-s2;
#X obj 224 186 r \$0-s3;
#X obj 297 185 r \$0-s4;
#X obj 369 187 r \$0-s5;
#X obj 446 187 r \$0-s6;
#X obj 519 186 r \$0-s7;
#X obj 593 186 r \$0-s8;
#X obj 89 252 outlet;
#X obj 277 54 vsl 14 66 22 120 0 0 \$0-f1 empty empty 0 -9 0 12 #c6feff #000000 #000000 0 1;
#X msg 603 39 250;
#X obj 603 63 s \$0-speed-start;
#X obj 603 15 loadbang;
#X obj 70 371 f;
#X obj 140 371 f;
#X obj 214 371 f;
#X obj 288 371 f;
#X obj 362 371 f;
#X obj 429 371 f;
#X obj 508 371 f;
#X obj 584 371 f;
#X obj 77 296 r \$0-f1;
#X obj 77 320 i;
#X obj 77 344 mtof;
#X obj 159 317 i;
#X obj 159 341 mtof;
#X obj 232 318 i;
#X obj 232 342 mtof;
#X obj 304 317 i;
#X obj 304 341 mtof;
#X obj 374 318 i;
#X obj 374 342 mtof;
#X obj 449 319 i;
#X obj 449 343 mtof;
#X obj 519 319 i;
#X obj 519 343 mtof;
#X obj 598 315 i;
#X obj 598 339 mtof;
#X obj 159 293 r \$0-f2;
#X obj 232 294 r \$0-f3;
#X obj 304 293 r \$0-f4;
#X obj 374 294 r \$0-f5;
#X obj 449 295 r \$0-f6;
#X obj 519 295 r \$0-f7;
#X obj 598 291 r \$0-f8;
#X obj 293 54 vsl 14 66 22 120 0 0 \$0-f2 empty empty 0 -9 0 12 #c6feff #000000 #000000 0 1;
#X obj 309 54 vsl 14 66 22 120 0 0 \$0-f3 empty empty 0 -9 0 12 #c6feff #000000 #000000 0 1;
#X obj 325 54 vsl 14 66 22 120 0 0 \$0-f4 empty empty 0 -9 0 12 #c6feff #000000 #000000 0 1;
#X obj 341 54 vsl 14 66 22 120 0 0 \$0-f5 empty empty 0 -9 0 12 #c6feff #000000 #000000 0 1;
#X obj 357 54 vsl 14 66 22 120 0 0 \$0-f6 empty empty 0 -9 0 12 #c6feff #000000 #000000 0 1;
#X obj 373 54 vsl 14 66 22 120 0 0 \$0-f7 empty empty 0 -9 0 12 #c6feff #000000 #000000 0 1;
#X obj 389 54 vsl 14 66 22 120 0 0 \$0-f8 empty empty 0 -9 0 12 #c6feff #000000 #000000 0 1;
#X obj 515 461 outlet;
#X connect 0 0 2 0;
#X connect 1 0 0 1;
#X connect 2 0 1 0;
#X connect 2 0 3 0;
#X connect 3 0 5 0;
#X connect 3 0 39 0;
#X connect 3 1 7 0;
#X connect 3 1 40 0;
#X connect 3 2 9 0;
#X connect 3 2 41 0;
#X connect 3 3 11 0;
#X connect 3 3 42 0;
#X connect 3 4 13 0;
#X connect 3 4 43 0;
#X connect 3 5 15 0;
#X connect 3 5 44 0;
#X connect 3 6 17 0;
#X connect 3 6 45 0;
#X connect 3 7 19 0;
#X connect 3 7 46 0;
#X connect 5 0 34 0;
#X connect 7 0 34 0;
#X connect 9 0 34 0;
#X connect 11 0 34 0;
#X connect 13 0 34 0;
#X connect 15 0 34 0;
#X connect 17 0 34 0;
#X connect 19 0 34 0;
#X connect 21 0 0 0;
#X connect 21 0 25 0;
#X connect 23 0 21 0;
#X connect 24 0 21 1;
#X connect 26 0 5 1;
#X connect 27 0 7 1;
#X connect 28 0 9 1;
#X connect 29 0 11 1;
#X connect 30 0 13 1;
#X connect 31 0 15 1;
#X connect 32 0 17 1;
#X connect 33 0 19 1;
#X connect 36 0 37 0;
#X connect 38 0 36 0;
#X connect 39 0 78 0;
#X connect 40 0 78 0;
#X connect 41 0 78 0;
#X connect 42 0 78 0;
#X connect 43 0 78 0;
#X connect 44 0 78 0;
#X connect 45 0 78 0;
#X connect 46 0 78 0;
#X connect 47 0 48 0;
#X connect 48 0 49 0;
#X connect 49 0 39 1;
#X connect 50 0 51 0;
#X connect 51 0 40 1;
#X connect 52 0 53 0;
#X connect 53 0 41 1;
#X connect 54 0 55 0;
#X connect 55 0 42 1;
#X connect 56 0 57 0;
#X connect 57 0 43 1;
#X connect 58 0 59 0;
#X connect 59 0 44 1;
#X connect 60 0 61 0;
#X connect 61 0 45 1;
#X connect 62 0 63 0;
#X connect 63 0 46 1;
#X connect 64 0 50 0;
#X connect 65 0 52 0;
#X connect 66 0 54 0;
#X connect 67 0 56 0;
#X connect 68 0 58 0;
#X connect 69 0 60 0;
#X connect 70 0 62 0;
#X coords 0 -1 1 1 135 126 1 272 0;
