#N canvas 309 322 1022 533 12;
#X obj 121 73 f;
#X obj 165 72 + 1;
#X obj 142 101 % 8;
#X obj 69 163 sel 0 1 2 3 4 5 6 7, f 84;
#X obj 276 45 tgl 14 0 \$0-s1 empty empty 0 -10 0 8 #ffe3c6 #000000 #000000 0 1;
#X obj 70 209 spigot;
#X obj 60 234 s \$0-tick;
#X obj 292 45 tgl 14 0 \$0-s2 empty empty 0 -10 0 8 #ffe3c6 #000000 #000000 0 1;
#X obj 144 211 spigot;
#X obj 134 236 s \$0-tick;
#X obj 308 45 tgl 14 0 \$0-s3 empty empty 0 -10 0 8 #ffe3c6 #000000 #000000 0 1;
#X obj 216 212 spigot;
#X obj 206 237 s \$0-tick;
#X obj 324 45 tgl 14 0 \$0-s4 empty empty 0 -10 0 8 #ffe3c6 #000000 #000000 0 1;
#X obj 288 213 spigot;
#X obj 278 238 s \$0-tick;
#X obj 340 45 tgl 14 0 \$0-s5 empty empty 0 -10 0 8 #ffe3c6 #000000 #000000 0 1;
#X obj 363 214 spigot;
#X obj 353 239 s \$0-tick;
#X obj 356 45 tgl 14 0 \$0-s6 empty empty 0 -10 0 8 #ffe3c6 #000000 #000000 0 1;
#X obj 434 214 spigot;
#X obj 424 239 s \$0-tick;
#X obj 372 45 tgl 14 0 \$0-s7 empty empty 0 -10 0 8 #ffe3c6 #000000 #000000 0 1;
#X obj 508 214 spigot;
#X obj 498 239 s \$0-tick;
#X obj 388 45 tgl 14 0 \$0-s8 empty empty 0 -10 0 8 #ffe3c6 #000000 #000000 0 1;
#X obj 578 212 spigot;
#X obj 576 241 s \$0-tick;
#X obj 277 15 tgl 19 0 \$0-start empty empty 0 -10 0 12 #fcfcfc #000000 #000000 0 1;
#X obj 121 40 metro 500;
#X floatatom 303 15 5 0 0 0 - - \$0-speed 0;
#X obj 64 11 r \$0-start;
#X obj 184 11 r \$0-speed;
#X obj 50 79 bng 19 250 50 0 empty empty empty 0 -10 0 12 #fcfcfc #000000 #000000;
#X obj 78 184 r \$0-s1;
#X obj 151 184 r \$0-s2;
#X obj 224 186 r \$0-s3;
#X obj 297 185 r \$0-s4;
#X obj 369 187 r \$0-s5;
#X obj 446 187 r \$0-s6;
#X obj 519 186 r \$0-s7;
#X obj 593 186 r \$0-s8;
#X obj 328 339 r \$0-tick;
#X obj 328 363 outlet;
#X connect 0 0 2 0;
#X connect 1 0 0 1;
#X connect 2 0 1 0;
#X connect 2 0 3 0;
#X connect 3 0 5 0;
#X connect 3 1 8 0;
#X connect 3 2 11 0;
#X connect 3 3 14 0;
#X connect 3 4 17 0;
#X connect 3 5 20 0;
#X connect 3 6 23 0;
#X connect 3 7 26 0;
#X connect 5 0 6 0;
#X connect 8 0 9 0;
#X connect 11 0 12 0;
#X connect 14 0 15 0;
#X connect 17 0 18 0;
#X connect 20 0 21 0;
#X connect 23 0 24 0;
#X connect 26 0 27 0;
#X connect 29 0 0 0;
#X connect 29 0 33 0;
#X connect 31 0 29 0;
#X connect 32 0 29 1;
#X connect 34 0 5 1;
#X connect 35 0 8 1;
#X connect 36 0 11 1;
#X connect 37 0 14 1;
#X connect 38 0 17 1;
#X connect 39 0 20 1;
#X connect 40 0 23 1;
#X connect 41 0 26 1;
#X connect 42 0 43 0;
#X coords 0 -1 1 1 135 60 2 272 10;
