#N canvas 253 39 1090 551 12;
#X obj 468 325 hsl 128 15 0 136 0 1 \$0-freq empty Freq 136 8 0 10 #ffc7c6 #000000 #000000 12700 1;
#X obj 194 113 + 100;
#X obj 194 137 dbtorms;
#X msg 147 241 \$1 100;
#X obj 147 265 line~;
#X msg 194 241 \$1 100;
#X obj 194 265 line~;
#X floatatom 194 159 5 0 0 0 - - - 0;
#X text 256 87 The gain of the resonance is equal to Q. By convention \, -3dB means no resonance for lowpass and highpass.;
#X obj 194 94 nbx 5 14 -1e+37 1e+37 0 1 empty empty empty 0 -8 0 10 #fcfcfc #000000 #000000 60.4032 256;
#X obj 242 219 nbx 5 14 -1e+37 1e+37 0 1 empty empty empty 0 -8 0 10 #fcfcfc #000000 #000000 0 256;
#X text 305 218 Gain (in dB) for peaking \, lowshelf \, and highshelf;
#X obj 147 79 mtof;
#X msg 242 241 \$1 100;
#X obj 242 265 line~;
#X text 668 94 filter types;
#X text 143 -3 frequency;
#X obj 112 310 multiFilter_abs~ lowpass;
#X msg 674 131 lowpass \$1;
#X msg 760 132 highpass \$1;
#X obj 478 307 tgl 15 0 \$0-lp empty LP 17 7 0 10 #fcfcfc #000000 #000000 0 1;
#X obj 519 307 tgl 15 0 \$0-hp empty HP 17 7 0 10 #fcfcfc #000000 #000000 0 1;
#X msg 850 131 resonant \$1;
#X obj 567 307 tgl 15 0 \$0-rf empty Res 17 7 0 10 #fcfcfc #000000 #000000 0 1;
#X symbolatom 969 140 10 0 0 0 - - - 0;
#X msg 969 159 set \$1;
#X text 231 157 Q - refers to resonance for lowpass \, highpass \, and resonant. Refers to bandwidth for bandpass \, peaknotch \, and allpass. Refers to slope for highshelf and lowshelf.;
#X obj 190 377 +~;
#X obj 193 413 s~ \$0-filter;
#X obj 969 181 r~ \$0-filter;
#X obj 468 343 hsl 128 15 0.53 100 1 0 \$0-res empty Res 136 8 0 10 #ffc7c6 #000000 #000000 0 1;
#X obj 301 45 - 3;
#X text 980 400 comment;
#X obj 37 13 inlet~;
#X obj 37 37 s~ \$0-mixin;
#X obj 37 174 r~ \$0-mixin;
#X obj 278 10 r \$0-res;
#X obj 677 108 r \$0-lp;
#X obj 760 103 r \$0-hp;
#X obj 852 102 r \$0-rf;
#X obj 969 222 outlet~;
#X obj 715 222 s \$0-filt_type;
#X obj 253 288 r \$0-filt_type;
#X obj 157 39 r \$0-freq;
#X connect 1 0 2 0;
#X connect 2 0 7 0;
#X connect 3 0 4 0;
#X connect 4 0 17 1;
#X connect 5 0 6 0;
#X connect 6 0 17 2;
#X connect 7 0 5 0;
#X connect 9 0 1 0;
#X connect 10 0 13 0;
#X connect 12 0 3 0;
#X connect 13 0 14 0;
#X connect 14 0 17 3;
#X connect 17 0 27 0;
#X connect 17 1 27 0;
#X connect 17 7 27 1;
#X connect 18 0 41 0;
#X connect 19 0 41 0;
#X connect 22 0 41 0;
#X connect 24 0 25 0;
#X connect 25 0 29 0;
#X connect 27 0 28 0;
#X connect 29 0 40 0;
#X connect 31 0 9 0;
#X connect 33 0 34 0;
#X connect 35 0 17 0;
#X connect 36 0 31 0;
#X connect 37 0 18 0;
#X connect 38 0 19 0;
#X connect 39 0 22 0;
#X connect 42 0 17 4;
#X connect 43 0 12 0;
#X coords 0 -1 1 1 174 60 2 460 302;
