#N canvas 628 25 656 474 12;
#X obj 56 35 inlet~;
#X obj 119 34 inlet~;
#X obj 188 24 inlet~;
#X obj 271 26 inlet~;
#X obj 56 59 s~ \$0-o1;
#X obj 120 59 s~ \$0-e1;
#X obj 191 54 s~ \$0-o2;
#X obj 261 56 s~ \$0-e2;
#X obj 368 20 noise~;
#X obj 409 43 *~;
#X obj 419 93 s~ \$0-noise;
#X obj 445 17 r \$0-noisev;
#X obj 204 198 *~;
#X obj 401 203 *~;
#X obj 237 225 *~;
#X obj 371 232 *~;
#X obj 298 281 /~ 2;
#X obj 57 162 r~ \$0-noise;
#X obj 291 176 r~ \$0-noise;
#X obj 135 130 r~ \$0-o1;
#X obj 241 130 r~ \$0-e1;
#X obj 373 131 r~ \$0-o2;
#X obj 471 129 r~ \$0-e2;
#X obj 296 315 outlet~;
#X obj 46 307 hsl 162 19 0 1 0 0 \$0-osc2v empty Osc2 166 10 0 12 #e3c6ff #000000 #000000 0 1;
#X obj 46 286 hsl 162 19 0 1 0 0 \$0-osc1v empty Osc1 166 10 0 12 #e3c6ff #000000 #000000 0 1;
#X obj 46 328 hsl 162 19 0 0.5 0 0 \$0-noisev empty Noise 166 10 0 12 #e3c6ff #000000 #000000 0 1;
#X obj 274 205 r \$0-osc1v;
#X obj 436 223 r $osc2v;
#X connect 0 0 4 0;
#X connect 1 0 5 0;
#X connect 2 0 6 0;
#X connect 3 0 7 0;
#X connect 8 0 9 0;
#X connect 9 0 10 0;
#X connect 11 0 9 1;
#X connect 12 0 14 0;
#X connect 13 0 15 0;
#X connect 14 0 16 0;
#X connect 15 0 16 0;
#X connect 16 0 23 0;
#X connect 17 0 12 0;
#X connect 18 0 13 0;
#X connect 19 0 12 0;
#X connect 20 0 12 1;
#X connect 21 0 13 0;
#X connect 22 0 13 1;
#X connect 27 0 14 1;
#X connect 28 0 15 1;
#X coords 0 -1 1 1 210 80 1 40 270;
