#N canvas 199 326 1134 521 12;
#X obj 48 147 tabosc4~ square;
#X floatatom 81 30 4 0 0 2 freq \$0-freq-in \$0-freq 10;
#X obj -56 92 sig~;
#X obj 111 28 hradio 19 1 0 2 empty empty \ ■\ \ ▶ 0 -8 0 12 #fcfcfc #000000 #000000 0;
#X obj 110 72 moses 1;
#X msg 83 104 set square;
#X msg 184 105 set triangle;
#X obj 65 182 outlet~;
#X obj -55 67 r \$0-freq;
#X obj -72 131 *~ 1;
#X text -167 -165 comment;
#X obj -66 42 vline~;
#X floatatom -113 -57 5 0 0 0 - - - 0;
#X msg -58 -39 10 0 \, 1 \$1 0;
#X obj -110 82 pow~ 2;
#X obj 80 5 hsl 72 10 0.01 1 0 0 \$0-dec-mod empty empty -2 -10 0 12 #fcfcfc #000000 #000000 0 1;
#X obj 178 -121 inlet;
#X obj -136 49 r \$0-pow;
#X obj 288 -66 s \$0-freq-in;
#X obj 288 -102 inlet;
#X obj -85 -156 r \$1;
#X obj 178 -96 s \$0-dec;
#X floatatom 16 -88 5 0 0 0 - - - 0;
#X obj 3 -155 r \$0-dec-mod;
#X obj -64 -103 *;
#X floatatom 17 -125 5 0 0 0 - - - 0;
#X connect 0 0 7 0;
#X connect 2 0 9 0;
#X connect 3 0 4 0;
#X connect 4 0 5 0;
#X connect 4 1 6 0;
#X connect 5 0 0 0;
#X connect 6 0 0 0;
#X connect 8 0 2 0;
#X connect 9 0 0 0;
#X connect 11 0 14 0;
#X connect 12 0 13 0;
#X connect 13 0 11 0;
#X connect 14 0 9 0;
#X connect 16 0 21 0;
#X connect 16 0 22 0;
#X connect 17 0 14 0;
#X connect 19 0 18 0;
#X connect 20 0 24 0;
#X connect 20 0 12 0;
#X connect 20 0 22 0;
#X connect 22 0 24 1;
#X connect 23 0 24 0;
#X connect 23 0 25 0;
#X connect 24 0 12 0;
#X coords 0 -1 1 1 79 60 1 76 -12;
