#N canvas 274 47 1134 521 12;
#X obj 48 147 tabosc4~ square;
#X floatatom 81 30 4 0 0 2 freq \$0-freq-in \$0-freq 10;
#X obj -56 92 sig~;
#X obj 111 28 hradio 19 1 0 2 empty empty \ ■\ \ ▶ 0 -8 0 12 #fcfcfc #000000 #000000 0;
#X obj 110 72 moses 1;
#X msg 83 104 set square;
#X msg 184 105 set triangle;
#X obj 65 182 outlet~;
#X obj -55 67 r \$0-freq;
#X obj -72 131 *~ 1;
#X text -167 -165 comment;
#X obj -66 42 vline~;
#X obj -56 -43 r \$1;
#X msg -132 -41 set \$1;
#X floatatom -133 -9 5 0 0 0 - - - 0;
#X msg -66 17 10 0 \, 1 \$1 0;
#X obj -110 82 pow~ 2;
#X obj -96 -69 expr ($f1 * $f2);
#X floatatom 28 -93 5 0 1 0 - - - 0;
#X obj 57 -140 loadbang;
#X msg 55 -115 0.3;
#X obj 80 5 hsl 72 10 0.01 1 0 0 \$0-dec-mod empty empty -2 -10 0 12 #fcfcfc #000000 #000000 0 1;
#X obj -51 -123 r \$0-dec-mod;
#X obj -95 -90 bng 19 250 50 0 empty empty empty 0 -10 0 12 #fcfcfc #000000 #000000;
#X obj 178 -121 inlet;
#X obj 178 -96 s \$0-pow;
#X obj -136 49 r \$0-pow;
#X obj 288 -66 s \$0-freq-in;
#X obj 288 -102 inlet;
#X connect 0 0 7 0;
#X connect 2 0 9 0;
#X connect 3 0 4 0;
#X connect 4 0 5 0;
#X connect 4 1 6 0;
#X connect 5 0 0 0;
#X connect 6 0 0 0;
#X connect 8 0 2 0;
#X connect 9 0 0 0;
#X connect 11 0 16 0;
#X connect 12 0 14 0;
#X connect 13 0 14 0;
#X connect 14 0 15 0;
#X connect 15 0 11 0;
#X connect 16 0 9 0;
#X connect 17 0 13 0;
#X connect 18 0 17 1;
#X connect 18 0 23 0;
#X connect 19 0 20 0;
#X connect 20 0 18 0;
#X connect 22 0 18 0;
#X connect 23 0 17 0;
#X connect 23 0 13 0;
#X connect 24 0 25 0;
#X connect 26 0 16 0;
#X connect 28 0 27 0;
#X coords 0 -1 1 1 79 60 1 76 -12;
