#N canvas 765 78 450 300 12;
#X obj 48 147 tabosc4~ square;
#X floatatom 81 34 4 0 0 2 freq \$0-freq-init \$0-freq 10;
#X obj 23 80 sig~;
#X obj 111 31 hradio 19 1 0 2 empty empty \ ■\ \ ▶ 0 -8 0 12 #fcfcfc #000000 #000000 0;
#X obj 110 72 moses 1;
#X msg 83 104 set square;
#X msg 184 105 set triangle;
#X obj 242 14 loadbang;
#X obj 166 8 inlet;
#X obj 165 35 s \$0-freq;
#X obj 65 182 outlet~;
#X obj 242 62 s \$0-freq-init;
#X obj 24 55 r \$0-freq;
#X msg 242 38 200;
#X connect 0 0 10 0;
#X connect 2 0 0 0;
#X connect 3 0 4 0;
#X connect 4 0 5 0;
#X connect 4 1 6 0;
#X connect 5 0 0 0;
#X connect 6 0 0 0;
#X connect 7 0 13 0;
#X connect 8 0 9 0;
#X connect 12 0 2 0;
#X connect 13 0 11 0;
#X coords 0 -1 1 1 76 34 2 76 18;
