#N canvas 711 228 697 489 12;
#X obj 167 138 vline~;
#X obj 353 139 vline~;
#X msg 238 100 1 5 0 \, 0 0 5;
#X obj 201 37 bng 15 250 50 0 empty empty empty 17 7 0 10 #fcfcfc #000000
#000000;
#X obj 214 63 t b b;
#X obj 244 331 tabwrite~ curveEnv;
#X floatatom 400 25 5 0 0 0 - - - 0;
#X msg 383 48 set \$1;
#X msg 348 101 1 0 5 \, 0 \$1 5;
#X floatatom 359 75 5 0 0 0 - - - 0;
#X obj 83 245 +~;
#X obj 353 163 pow~ 2;
#X obj 192 9 inlet bang;
#X obj 357 2 inlet decayTime;
#X obj 83 288 outlet~ envOut;
#X obj 506 20 inlet deacayCurve;
#X connect 0 0 5 0;
#X connect 0 0 10 0;
#X connect 1 0 11 0;
#X connect 2 0 0 0;
#X connect 3 0 4 0;
#X connect 4 0 5 0;
#X connect 4 1 9 0;
#X connect 4 1 2 0;
#X connect 6 0 7 0;
#X connect 7 0 9 0;
#X connect 8 0 1 0;
#X connect 9 0 8 0;
#X connect 10 0 14 0;
#X connect 11 0 5 0;
#X connect 11 0 10 0;
#X connect 12 0 3 0;
#X connect 13 0 6 0;
#X connect 15 0 11 1;
