#N canvas 569 177 659 544 12;
#X obj -5 9 inlet;
#X obj 0 103 sig~;
#X obj 47 262 tabosc4~ square;
#X msg 55 144 set square;
#X msg 147 144 set triangle;
#X obj 115 346 outlet~;
#X obj 104 42 bng 19 250 50 0 empty empty square 22 5 0 12 #fcfcfc #000000 #000000;
#X obj 103 67 bng 19 250 50 0 empty empty triangle 22 5 0 12 #fcfcfc #000000 #000000;
#X text 101 10 freq;
#X text 136 11 vco env;
#X obj 40 10 inlet;
#X obj 40 34 vline~;
#X obj 24 146 *~;
#X connect 0 0 1 0;
#X connect 1 0 12 0;
#X connect 2 0 5 0;
#X connect 3 0 2 0;
#X connect 4 0 2 0;
#X connect 6 0 3 0;
#X connect 7 0 4 0;
#X connect 10 0 11 0;
#X connect 11 0 12 0;
#X connect 12 0 2 0;
#X coords 0 -1 1 1 92 90 2 100 9;
